<svg width="512" height="512" viewBox="0 0 512 512" fill="none" xmlns="http://www.w3.org/2000/svg">
  <rect width="512" height="512" fill="#F0F0F0"/>
  <line x1="0" y1="64" x2="512" y2="64" stroke="#E0E0E0" stroke-width="1"/>
  <line x1="0" y1="128" x2="512" y2="128" stroke="#E0E0E0" stroke-width="1"/>
  <line x1="0" y1="192" x2="512" y2="192" stroke="#E0E0E0" stroke-width="1"/>
  <line x1="0" y1="256" x2="512" y2="256" stroke="#E0E0E0" stroke-width="1"/>
  <line x1="0" y1="320" x2="512" y2="320" stroke="#E0E0E0" stroke-width="1"/>
  <line x1="0" y1="384" x2="512" y2="384" stroke="#E0E0E0" stroke-width="1"/>
  <line x1="0" y1="448" x2="512" y2="448" stroke="#E0E0E0" stroke-width="1"/>
  <line x1="64" y1="0" x2="64" y2="512" stroke="#E0E0E0" stroke-width="1"/>
  <line x1="128" y1="0" x2="128" y2="512" stroke="#E0E0E0" stroke-width="1"/>
  <line x1="192" y1="0" x2="192" y2="512" stroke="#E0E0E0" stroke-width="1"/>
  <line x1="256" y1="0" x2="256" y2="512" stroke="#E0E0E0" stroke-width="1"/>
  <line x1="320" y1="0" x2="320" y2="512" stroke="#E0E0E0" stroke-width="1"/>
  <line x1="384" y1="0" x2="384" y2="512" stroke="#E0E0E0" stroke-width="1"/>
  <line x1="448" y1="0" x2="448" y2="512" stroke="#E0E0E0" stroke-width="1"/>
</svg>
