<svg width="512" height="512" viewBox="0 0 512 512" fill="none" xmlns="http://www.w3.org/2000/svg">
  <rect width="512" height="512" fill="#78909C"/>
  <rect x="0" y="0" width="128" height="128" fill="#78909C"/>
  <rect x="128" y="0" width="128" height="128" fill="#6D838F"/>
  <rect x="256" y="0" width="128" height="128" fill="#78909C"/>
  <rect x="384" y="0" width="128" height="128" fill="#6D838F"/>
  <rect x="0" y="128" width="128" height="128" fill="#6D838F"/>
  <rect x="128" y="128" width="128" height="128" fill="#78909C"/>
  <rect x="256" y="128" width="128" height="128" fill="#6D838F"/>
  <rect x="384" y="128" width="128" height="128" fill="#78909C"/>
  <rect x="0" y="256" width="128" height="128" fill="#78909C"/>
  <rect x="128" y="256" width="128" height="128" fill="#6D838F"/>
  <rect x="256" y="256" width="128" height="128" fill="#78909C"/>
  <rect x="384" y="256" width="128" height="128" fill="#6D838F"/>
  <rect x="0" y="384" width="128" height="128" fill="#6D838F"/>
  <rect x="128" y="384" width="128" height="128" fill="#78909C"/>
  <rect x="256" y="384" width="128" height="128" fill="#6D838F"/>
  <rect x="384" y="384" width="128" height="128" fill="#78909C"/>
  
  <!-- Scratches and details -->
  <line x1="120" y1="50" x2="170" y2="20" stroke="#5C7684" stroke-width="2"/>
  <line x1="350" y1="240" x2="450" y2="260" stroke="#5C7684" stroke-width="2"/>
  <line x1="200" y1="380" x2="280" y2="430" stroke="#5C7684" stroke-width="2"/>
  <line x1="40" y1="320" x2="90" y2="360" stroke="#5C7684" stroke-width="2"/>
  
  <circle cx="300" cy="100" r="10" fill="#6D838F"/>
  <circle cx="150" cy="350" r="8" fill="#6D838F"/>
  <circle cx="420" cy="410" r="12" fill="#6D838F"/>
</svg>
